<svg id="visual" viewBox="0 0 900 600" width="900" height="600" xmlns="http://www.w3.org/2000/svg" xmlns:xlink="http://www.w3.org/1999/xlink" version="1.1"><g stroke-width="1" stroke-linejoin="bevel"><path d="M409 313L425 417L480 333Z" fill="#52814e" stroke="#FFFFFF"></path><path d="M425 417L511 386L480 333Z" fill="#442a17" stroke="#FFFFFF"></path><path d="M273 381L403 472L425 417Z" fill="#586e39" stroke="#FFFFFF"></path><path d="M537 464L564 424L511 386Z" fill="#52814e" stroke="#FFFFFF"></path><path d="M480 333L393 230L409 313Z" fill="#442a17" stroke="#FFFFFF"></path><path d="M409 313L273 381L425 417Z" fill="#29110e" stroke="#FFFFFF"></path><path d="M537 464L511 386L425 417Z" fill="#595c2b" stroke="#FFFFFF"></path><path d="M511 386L578 332L480 333Z" fill="#459368" stroke="#FFFFFF"></path><path d="M480 333L516 169L393 230Z" fill="#52814e" stroke="#FFFFFF"></path><path d="M403 472L537 464L425 417Z" fill="#564a21" stroke="#FFFFFF"></path><path d="M564 424L578 332L511 386Z" fill="#1c0003" stroke="#FFFFFF"></path><path d="M278 264L273 381L409 313Z" fill="#1c0003" stroke="#FFFFFF"></path><path d="M537 464L560 470L564 424Z" fill="#52814e" stroke="#FFFFFF"></path><path d="M564 424L693 319L578 332Z" fill="#29110e" stroke="#FFFFFF"></path><path d="M518 600L560 470L537 464Z" fill="#29a688" stroke="#FFFFFF"></path><path d="M393 230L278 264L409 313Z" fill="#29a688" stroke="#FFFFFF"></path><path d="M222 279L239 378L273 381Z" fill="#564a21" stroke="#FFFFFF"></path><path d="M273 381L298 533L403 472Z" fill="#1c0003" stroke="#FFFFFF"></path><path d="M578 332L516 169L480 333Z" fill="#4f391b" stroke="#FFFFFF"></path><path d="M393 230L268 171L278 264Z" fill="#595c2b" stroke="#FFFFFF"></path><path d="M181 486L298 533L273 381Z" fill="#4f391b" stroke="#FFFFFF"></path><path d="M403 472L518 600L537 464Z" fill="#4f391b" stroke="#FFFFFF"></path><path d="M198 191L222 279L278 264Z" fill="#1c0003" stroke="#FFFFFF"></path><path d="M278 264L222 279L273 381Z" fill="#459368" stroke="#FFFFFF"></path><path d="M298 533L367 600L403 472Z" fill="#1c0003" stroke="#FFFFFF"></path><path d="M367 600L518 600L403 472Z" fill="#52814e" stroke="#FFFFFF"></path><path d="M279 119L268 171L393 230Z" fill="#29a688" stroke="#FFFFFF"></path><path d="M686 481L693 319L564 424Z" fill="#29a688" stroke="#FFFFFF"></path><path d="M578 332L634 168L516 169Z" fill="#52814e" stroke="#FFFFFF"></path><path d="M686 481L564 424L560 470Z" fill="#442a17" stroke="#FFFFFF"></path><path d="M516 169L415 98L393 230Z" fill="#586e39" stroke="#FFFFFF"></path><path d="M629 600L686 481L560 470Z" fill="#459368" stroke="#FFFFFF"></path><path d="M683 234L634 168L578 332Z" fill="#564a21" stroke="#FFFFFF"></path><path d="M516 169L486 82L415 98Z" fill="#29110e" stroke="#FFFFFF"></path><path d="M693 319L683 234L578 332Z" fill="#381d14" stroke="#FFFFFF"></path><path d="M134 379L181 486L239 378Z" fill="#4f391b" stroke="#FFFFFF"></path><path d="M239 378L181 486L273 381Z" fill="#29110e" stroke="#FFFFFF"></path><path d="M298 533L269 600L367 600Z" fill="#4f391b" stroke="#FFFFFF"></path><path d="M562 63L486 82L516 169Z" fill="#442a17" stroke="#FFFFFF"></path><path d="M415 98L279 119L393 230Z" fill="#595c2b" stroke="#FFFFFF"></path><path d="M268 171L198 191L278 264Z" fill="#52814e" stroke="#FFFFFF"></path><path d="M263 0L279 119L415 98Z" fill="#29a688" stroke="#FFFFFF"></path><path d="M181 486L269 600L298 533Z" fill="#29a688" stroke="#FFFFFF"></path><path d="M279 119L198 191L268 171Z" fill="#4f391b" stroke="#FFFFFF"></path><path d="M222 279L134 379L239 378Z" fill="#595c2b" stroke="#FFFFFF"></path><path d="M64 275L134 379L222 279Z" fill="#1c0003" stroke="#FFFFFF"></path><path d="M686 481L738 368L693 319Z" fill="#459368" stroke="#FFFFFF"></path><path d="M693 319L776 314L683 234Z" fill="#52814e" stroke="#FFFFFF"></path><path d="M518 600L629 600L560 470Z" fill="#381d14" stroke="#FFFFFF"></path><path d="M634 168L562 63L516 169Z" fill="#564a21" stroke="#FFFFFF"></path><path d="M486 82L418 0L415 98Z" fill="#381d14" stroke="#FFFFFF"></path><path d="M694 79L562 63L634 168Z" fill="#381d14" stroke="#FFFFFF"></path><path d="M629 600L667 600L686 481Z" fill="#29110e" stroke="#FFFFFF"></path><path d="M686 481L778 400L738 368Z" fill="#586e39" stroke="#FFFFFF"></path><path d="M134 379L137 532L181 486Z" fill="#1c0003" stroke="#FFFFFF"></path><path d="M181 486L160 600L269 600Z" fill="#586e39" stroke="#FFFFFF"></path><path d="M778 400L776 314L738 368Z" fill="#459368" stroke="#FFFFFF"></path><path d="M738 368L776 314L693 319Z" fill="#4f391b" stroke="#FFFFFF"></path><path d="M683 234L694 79L634 168Z" fill="#29a688" stroke="#FFFFFF"></path><path d="M813 478L778 400L686 481Z" fill="#442a17" stroke="#FFFFFF"></path><path d="M168 91L126 190L198 191Z" fill="#52814e" stroke="#FFFFFF"></path><path d="M198 191L126 190L222 279Z" fill="#4f391b" stroke="#FFFFFF"></path><path d="M134 379L0 434L137 532Z" fill="#381d14" stroke="#FFFFFF"></path><path d="M137 532L160 600L181 486Z" fill="#459368" stroke="#FFFFFF"></path><path d="M472 0L418 0L486 82Z" fill="#586e39" stroke="#FFFFFF"></path><path d="M279 119L168 91L198 191Z" fill="#1c0003" stroke="#FFFFFF"></path><path d="M562 63L472 0L486 82Z" fill="#29110e" stroke="#FFFFFF"></path><path d="M126 190L64 275L222 279Z" fill="#595c2b" stroke="#FFFFFF"></path><path d="M263 0L168 91L279 119Z" fill="#29a688" stroke="#FFFFFF"></path><path d="M126 190L0 179L64 275Z" fill="#595c2b" stroke="#FFFFFF"></path><path d="M789 203L694 79L683 234Z" fill="#52814e" stroke="#FFFFFF"></path><path d="M562 63L593 0L472 0Z" fill="#586e39" stroke="#FFFFFF"></path><path d="M776 314L789 203L683 234Z" fill="#29110e" stroke="#FFFFFF"></path><path d="M900 210L789 203L776 314Z" fill="#586e39" stroke="#FFFFFF"></path><path d="M0 600L121 600L137 532Z" fill="#459368" stroke="#FFFFFF"></path><path d="M137 532L121 600L160 600Z" fill="#4f391b" stroke="#FFFFFF"></path><path d="M694 79L593 0L562 63Z" fill="#442a17" stroke="#FFFFFF"></path><path d="M774 600L813 478L686 481Z" fill="#595c2b" stroke="#FFFFFF"></path><path d="M778 400L900 334L776 314Z" fill="#4f391b" stroke="#FFFFFF"></path><path d="M418 0L263 0L415 98Z" fill="#4f391b" stroke="#FFFFFF"></path><path d="M667 600L774 600L686 481Z" fill="#29a688" stroke="#FFFFFF"></path><path d="M200 0L135 72L168 91Z" fill="#442a17" stroke="#FFFFFF"></path><path d="M168 91L135 72L126 190Z" fill="#442a17" stroke="#FFFFFF"></path><path d="M263 0L200 0L168 91Z" fill="#29110e" stroke="#FFFFFF"></path><path d="M0 179L0 321L64 275Z" fill="#595c2b" stroke="#FFFFFF"></path><path d="M64 275L0 321L134 379Z" fill="#381d14" stroke="#FFFFFF"></path><path d="M0 321L0 434L134 379Z" fill="#381d14" stroke="#FFFFFF"></path><path d="M0 434L0 498L137 532Z" fill="#4f391b" stroke="#FFFFFF"></path><path d="M789 203L774 61L694 79Z" fill="#586e39" stroke="#FFFFFF"></path><path d="M694 79L734 0L593 0Z" fill="#586e39" stroke="#FFFFFF"></path><path d="M900 437L778 400L813 478Z" fill="#52814e" stroke="#FFFFFF"></path><path d="M900 437L900 334L778 400Z" fill="#442a17" stroke="#FFFFFF"></path><path d="M789 203L900 132L774 61Z" fill="#381d14" stroke="#FFFFFF"></path><path d="M0 122L0 179L126 190Z" fill="#459368" stroke="#FFFFFF"></path><path d="M0 122L126 190L135 72Z" fill="#595c2b" stroke="#FFFFFF"></path><path d="M774 61L734 0L694 79Z" fill="#1c0003" stroke="#FFFFFF"></path><path d="M900 519L900 437L813 478Z" fill="#381d14" stroke="#FFFFFF"></path><path d="M900 334L900 210L776 314Z" fill="#586e39" stroke="#FFFFFF"></path><path d="M774 61L782 0L734 0Z" fill="#29110e" stroke="#FFFFFF"></path><path d="M774 600L900 519L813 478Z" fill="#381d14" stroke="#FFFFFF"></path><path d="M200 0L99 0L135 72Z" fill="#29a688" stroke="#FFFFFF"></path><path d="M0 498L0 600L137 532Z" fill="#586e39" stroke="#FFFFFF"></path><path d="M99 0L0 122L135 72Z" fill="#381d14" stroke="#FFFFFF"></path><path d="M900 0L782 0L774 61Z" fill="#52814e" stroke="#FFFFFF"></path><path d="M900 210L900 132L789 203Z" fill="#381d14" stroke="#FFFFFF"></path><path d="M774 600L900 600L900 519Z" fill="#564a21" stroke="#FFFFFF"></path><path d="M99 0L0 0L0 122Z" fill="#459368" stroke="#FFFFFF"></path><path d="M900 132L900 0L774 61Z" fill="#52814e" stroke="#FFFFFF"></path></g></svg>